<svg width="64" height="64" viewBox="0 0 64 64" fill="none" xmlns="http://www.w3.org/2000/svg">
<rect x="7.86077" y="32.0619" width="15.7663" height="7.64088" rx="2.16667" transform="rotate(-60 7.86077 32.0619)" fill="#006FEE" stroke="#006FEE" stroke-width="1.9697"/>
<circle cx="23.0609" cy="15.7121" r="5.90909" stroke="#006FEE" stroke-width="1.9697"/>
<circle cx="49.6518" cy="10.7879" r="6.89394" stroke="#006FEE" stroke-width="1.9697"/>
<mask id="path-4-inside-1_49_57" fill="white">
<path fill-rule="evenodd" clip-rule="evenodd" d="M55.4316 52.1485C55.5168 51.5061 55.5609 50.8495 55.5609 50.1818C55.5609 42.567 49.8288 36.3939 42.7579 36.3939C35.6869 36.3939 29.9548 42.567 29.9548 50.1818C29.9548 50.8495 29.9989 51.5061 30.0841 52.1485H55.4316Z"/>
</mask>
<path d="M55.4316 52.1485V54.1182H57.1574L57.3842 52.4074L55.4316 52.1485ZM30.0841 52.1485L28.1315 52.4074L28.3584 54.1182H30.0841V52.1485ZM53.5912 50.1818C53.5912 50.7628 53.5529 51.3329 53.479 51.8896L57.3842 52.4074C57.4808 51.6794 57.5306 50.9363 57.5306 50.1818H53.5912ZM42.7579 38.3636C48.606 38.3636 53.5912 43.5148 53.5912 50.1818H57.5306C57.5306 41.6192 51.0515 34.4242 42.7579 34.4242V38.3636ZM31.9245 50.1818C31.9245 43.5148 36.9097 38.3636 42.7579 38.3636V34.4242C34.4642 34.4242 27.9851 41.6192 27.9851 50.1818H31.9245ZM32.0367 51.8896C31.9629 51.3329 31.9245 50.7628 31.9245 50.1818H27.9851C27.9851 50.9363 28.0349 51.6794 28.1315 52.4074L32.0367 51.8896ZM30.0841 54.1182H55.4316V50.1788H30.0841V54.1182Z" fill="#006FEE" mask="url(#path-4-inside-1_49_57)"/>
<mask id="path-6-inside-2_49_57" fill="white">
<path fill-rule="evenodd" clip-rule="evenodd" d="M49.4353 52.1485C49.5766 51.5198 49.6518 50.8609 49.6518 50.1818C49.6518 45.8305 46.5653 42.303 42.7579 42.303C38.9504 42.303 35.8639 45.8305 35.8639 50.1818C35.8639 50.8609 35.9391 51.5198 36.0804 52.1485H49.4353Z"/>
</mask>
<path fill-rule="evenodd" clip-rule="evenodd" d="M49.4353 52.1485C49.5766 51.5198 49.6518 50.8609 49.6518 50.1818C49.6518 45.8305 46.5653 42.303 42.7579 42.303C38.9504 42.303 35.8639 45.8305 35.8639 50.1818C35.8639 50.8609 35.9391 51.5198 36.0804 52.1485H49.4353Z" fill="#006FEE"/>
<path d="M49.4353 52.1485V54.1182H51.0113L51.357 52.5806L49.4353 52.1485ZM36.0804 52.1485L34.1587 52.5806L34.5044 54.1182H36.0804V52.1485ZM47.6821 50.1818C47.6821 50.7154 47.6231 51.2294 47.5136 51.7164L51.357 52.5806C51.5302 51.8102 51.6215 51.0064 51.6215 50.1818H47.6821ZM42.7579 44.2727C45.2386 44.2727 47.6821 46.663 47.6821 50.1818H51.6215C51.6215 44.9979 47.8919 40.3333 42.7579 40.3333V44.2727ZM37.8336 50.1818C37.8336 46.663 40.2771 44.2727 42.7579 44.2727V40.3333C37.6238 40.3333 33.8942 44.9979 33.8942 50.1818H37.8336ZM38.0022 51.7164C37.8927 51.2294 37.8336 50.7154 37.8336 50.1818H33.8942C33.8942 51.0064 33.9855 51.8102 34.1587 52.5806L38.0022 51.7164ZM36.0804 54.1182H49.4353V50.1788H36.0804V54.1182Z" fill="#006FEE" mask="url(#path-6-inside-2_49_57)"/>
<line x1="44.4891" y1="14.8133" x2="37.3982" y2="38.4497" stroke="#006FEE" stroke-width="1.9697"/>
<line x1="53.9379" y1="16.4074" x2="46.847" y2="38.468" stroke="#006FEE" stroke-width="1.9697"/>
<path d="M27.0003 10.9848L43.5458 7.43939M28.5761 18.0758L43.5458 14.5303" stroke="#006FEE" stroke-width="1.9697"/>
<path d="M10.8402 38.5298L6.50333 36.2168C6.08933 35.996 5.5753 36.1837 5.40104 36.6194L2.82525 43.0588C2.68163 43.4179 2.81982 43.8281 3.15141 44.027L5.895 45.6732C6.24587 45.8837 6.6995 45.7906 6.93908 45.4589L11.1082 39.6863C11.3877 39.2992 11.2615 38.7545 10.8402 38.5298Z" stroke="#006FEE" stroke-width="1.9697"/>
<path d="M2.97 44.4697L1.89998 49.4631C1.86708 49.6166 2.05445 49.7186 2.16548 49.6075L6.12151 45.6515" stroke="#006FEE" stroke-width="1.9697"/>
<path d="M25.0306 56.0909C25.0306 53.3713 27.2353 51.1667 29.9548 51.1667H55.5609C58.2805 51.1667 60.4851 53.3713 60.4851 56.0909C60.4851 58.8105 58.2805 61.0151 55.5609 61.0151H29.9548C27.2353 61.0151 25.0306 58.8105 25.0306 56.0909Z" stroke="#006FEE" stroke-width="1.9697"/>
<rect x="27.2704" y="10.2904" width="15.5817" height="8.46354" transform="rotate(-12.5207 27.2704 10.2904)" fill="#006FEE"/>
<rect x="44.3373" y="15.6427" width="9.65855" height="20.8179" transform="rotate(17.0372 44.3373 15.6427)" fill="#006FEE"/>
<path d="M39.7972 33.5625L42.729 37.3711H36.8653L39.7972 33.5625Z" fill="#006FEE"/>
</svg>
